<svg width="21" height="21" viewBox="0 0 21 21" fill="none" xmlns="http://www.w3.org/2000/svg">
<path d="M7.21875 7.875V4.59375C7.21875 4.07161 7.42617 3.57085 7.79538 3.20163C8.1646 2.83242 8.66536 2.625 9.1875 2.625H14.4375C14.9596 2.625 15.4604 2.83242 15.8296 3.20163C16.1988 3.57085 16.4062 4.07161 16.4062 4.59375V16.4062C16.4062 16.9284 16.1988 17.4292 15.8296 17.7984C15.4604 18.1676 14.9596 18.375 14.4375 18.375H9.1875C8.66536 18.375 8.1646 18.1676 7.79538 17.7984C7.42617 17.4292 7.21875 16.9284 7.21875 16.4062V13.125M4.59375 13.125L1.96875 10.5M1.96875 10.5L4.59375 7.875M1.96875 10.5H13.125" stroke="#2A313E" stroke-width="1.5" stroke-linecap="round" stroke-linejoin="round"/>
</svg>
