<svg width="24" height="24" viewBox="0 0 24 24" fill="none" xmlns="http://www.w3.org/2000/svg">
<path d="M13.0985 8.94278C13.6983 9.22917 14.2206 9.65533 14.6216 10.1855C15.0226 10.7156 15.2905 11.3342 15.4028 11.9893C15.5152 12.6445 15.4686 13.317 15.2671 13.9504C15.0657 14.5839 14.7151 15.1597 14.2449 15.6295L10.0911 19.7834C9.31208 20.5624 8.25553 21 7.15386 21C6.05219 21 4.99564 20.5624 4.21664 19.7834C3.43764 19.0044 3 17.9478 3 16.8461C3 15.7445 3.43764 14.6879 4.21664 13.9089L5.83848 12.2871M18.1615 11.7129L19.7834 10.0911C20.5624 9.31208 21 8.25553 21 7.15386C21 6.05219 20.5624 4.99564 19.7834 4.21664C19.0044 3.43764 17.9478 3 16.8461 3C15.7445 3 14.6879 3.43764 13.9089 4.21664L9.75508 8.37047C9.2849 8.84032 8.93435 9.41614 8.73285 10.0496C8.53136 10.683 8.48483 11.3555 8.59715 12.0107C8.70948 12.6658 8.97738 13.2844 9.37837 13.8145C9.77935 14.3447 10.3017 14.7708 10.9015 15.0572" stroke="white" stroke-width="1.5" stroke-linecap="round" stroke-linejoin="round"/>
</svg>
